<svg width="241" height="240" viewBox="0 0 241 240" fill="none" xmlns="http://www.w3.org/2000/svg">
<path fill-rule="evenodd" clip-rule="evenodd" d="M151.806 108H89.1938L83.5 147.029H104.847C104.847 154.746 111.857 161 120.5 161C129.143 161 136.153 154.746 136.153 147.029H157.5L151.806 108Z" fill="white" stroke="#333333" stroke-width="2" stroke-dasharray="6 6"/>
<path d="M119.901 133.802C139.452 133.802 155.302 117.952 155.302 98.401C155.302 78.8495 139.452 63 119.901 63C100.35 63 84.5 78.8495 84.5 98.401C84.5 117.952 100.35 133.802 119.901 133.802Z" fill="#2A7DE1"/>
<path d="M120.458 82.9546V102.358" stroke="#333333" stroke-width="1.8" stroke-miterlimit="10"/>
<path d="M120.458 108.466V113.853" stroke="#333333" stroke-width="1.8" stroke-miterlimit="10"/>
<path d="M155.302 98.4009C155.302 117.956 139.45 133.802 119.901 133.802" stroke="#333333" stroke-width="1.8" stroke-miterlimit="10"/>
<path fill-rule="evenodd" clip-rule="evenodd" d="M120.498 160.854C111.854 160.854 104.843 154.653 104.843 147H83.5V167.446C83.5 172.724 87.7512 177 92.9984 177H148.002C153.249 177 157.5 172.724 157.5 167.446V147H136.152C136.152 154.653 129.146 160.854 120.498 160.854Z" fill="#F2F2F2" stroke="#333333" stroke-width="2" stroke-dasharray="6 6"/>
<path d="M44.0317 110.474L52.8374 113.455" stroke="#333333" stroke-width="2" stroke-miterlimit="10"/>
<path d="M40.9668 124.188L51.8013 123.974" stroke="#333333" stroke-width="2" stroke-miterlimit="10"/>
<path d="M44.4718 137.912L53.4094 132.53" stroke="#333333" stroke-width="2" stroke-miterlimit="10"/>
<path d="M194.003 124.806L188.03 131.777" stroke="#333333" stroke-width="2" stroke-miterlimit="10"/>
<path d="M201.418 136.802L192.821 140.048" stroke="#333333" stroke-width="2" stroke-miterlimit="10"/>
<path d="M201.785 150.529L192.176 148.851" stroke="#333333" stroke-width="2" stroke-miterlimit="10"/>
</svg>
